<?xml version="1.0" encoding="UTF-8"?>
<svg id="Layer_1" data-name="Layer 1" xmlns="http://www.w3.org/2000/svg" viewBox="0 0 1920 1080">
  <defs>
    <style>
      .cls-1 {
        stroke: #000;
        stroke-miterlimit: 10;
      }

      .cls-2 {
        stroke-width: 0px;
      }
    </style>
  </defs>
  <rect id="Retangle_1" data-name="Retangle 1" class="cls-1" x="350.25" y="573.44" width="90" height="35"/>
  <rect id="Retangle_2" data-name="Retangle 2" class="cls-1" x="277.25" y="518.44" width="190" height="35"/>
  <rect id="Retangle_3" data-name="Retangle 3" class="cls-1" x="364.25" y="460.44" width="130" height="35"/>
  <g id="HUNNERS">
    <path id="H" class="cls-2" d="m563.88,608.41h-41.93l29.65-148.25h41.93l-29.65,148.25Zm71.58-57.82h-62.9l6.99-34.73h62.9l-6.99,34.73Zm15.04-90.43h41.93l-29.65,148.25h-41.93l29.65-148.25Z"/>
    <path id="U" class="cls-2" d="m764.86,611.37c-14.82,0-27.21-2.86-37.17-8.58-9.95-5.72-16.98-13.77-21.07-24.14-4.1-10.38-4.8-22.48-2.12-36.32l16.52-82.17h41.93l-16.31,81.54c-1.13,5.93-1.48,11.09-1.06,15.46.42,4.38,1.66,8.05,3.71,11.01,2.04,2.96,4.8,5.12,8.26,6.46,3.46,1.34,7.59,2.01,12.39,2.01,5.79,0,10.83-1.16,15.14-3.49,4.31-2.33,7.91-6.07,10.8-11.22,2.89-5.15,5.12-11.89,6.67-20.23l16.31-81.54h41.3l-16.73,84.08c-4.38,22.03-13.13,38.72-26.26,50.09-13.13,11.37-30.57,17.05-52.31,17.05Z"/>
    <path id="N" class="cls-2" d="m859.1,608.41l29.65-148.25h34.52l59.93,99.11-14.4-.42,19.7-98.69h41.09l-29.65,148.25h-34.52l-59.72-99.11,14.19.42-19.7,98.69h-41.08Z"/>
    <path id="N-2" data-name="N" class="cls-2" d="m1029.79,608.41l29.65-148.25h34.52l59.93,99.11-14.4-.42,19.7-98.69h41.08l-29.65,148.25h-34.52l-59.72-99.11,14.19.42-19.7,98.69h-41.08Z"/>
    <path id="E" class="cls-2" d="m1248.35,576.01h77.72l-6.78,32.4h-118.81l29.65-148.25h116.06l-6.57,32.4h-74.76l-16.52,83.44Zm8.68-58.45h68.83l-6.14,31.34h-68.83l6.14-31.34Z"/>
    <path id="R" class="cls-2" d="m1342.8,608.41l29.65-148.25h63.32c19.06,0,33.78,4.17,44.16,12.5,10.38,8.33,15.57,19.91,15.57,34.73,0,12.43-3,23.26-9,32.51-6,9.25-14.51,16.41-25.52,21.5-11.01,5.08-24,7.62-38.97,7.62h-48.07l22.24-18-11.44,57.39h-41.93Zm52.31-52.52l-14.61-19.27h43.42c9.32,0,16.52-2.19,21.6-6.57,5.08-4.37,7.62-10.59,7.62-18.64,0-6.21-2.05-10.8-6.14-13.77-4.1-2.96-9.81-4.45-17.15-4.45h-40.45l22.45-19.91-16.73,82.59Zm40.66,52.52l-30.29-54h43.42l30.71,54h-43.84Z"/>
    <path id="S" class="cls-2" d="m1554.79,611.37c-8.47,0-16.59-.67-24.35-2.01-7.77-1.34-14.83-3.25-21.18-5.72-6.35-2.47-11.79-5.19-16.31-8.15l16.52-31.34c5.08,3.11,10.34,5.75,15.78,7.94,5.43,2.19,10.98,3.85,16.62,4.98,5.65,1.13,11.29,1.69,16.94,1.69s9.95-.53,13.77-1.59c3.81-1.06,6.7-2.57,8.68-4.55,1.98-1.98,2.96-4.31,2.96-6.99,0-2.96-1.31-5.33-3.92-7.09-2.61-1.76-6.04-3.28-10.27-4.55-4.24-1.27-8.93-2.57-14.08-3.92-5.16-1.34-10.31-2.97-15.46-4.87-5.16-1.91-9.85-4.31-14.08-7.2-4.24-2.89-7.66-6.6-10.27-11.12-2.61-4.52-3.92-10.09-3.92-16.73,0-10.73,2.89-20.05,8.68-27.96,5.79-7.91,14.01-14.05,24.67-18.42,10.66-4.37,23.26-6.56,37.8-6.56,10.59,0,20.47,1.1,29.65,3.28,9.18,2.19,17.08,5.33,23.72,9.42l-15.25,31.13c-5.79-3.67-12.18-6.46-19.17-8.37-6.99-1.91-14.16-2.86-21.5-2.86-5.65,0-10.48.64-14.51,1.91s-7.06,3-9.11,5.19c-2.05,2.19-3.07,4.63-3.07,7.31,0,2.83,1.27,5.16,3.81,6.99,2.54,1.84,5.96,3.39,10.27,4.66,4.3,1.27,9.03,2.58,14.19,3.92,5.15,1.34,10.27,2.9,15.35,4.66,5.08,1.77,9.81,4.1,14.19,6.99,4.38,2.9,7.84,6.53,10.38,10.91,2.54,4.38,3.81,9.81,3.81,16.31,0,10.59-2.9,19.84-8.68,27.74-5.79,7.91-14.05,14.05-24.78,18.42-10.73,4.37-23.37,6.56-37.91,6.56Z"/>
  </g>
</svg>